<?xml version="1.0" standalone="no"?>
<!DOCTYPE svg PUBLIC "-//W3C//DTD SVG 20010904//EN"
 "http://www.w3.org/TR/2001/REC-SVG-20010904/DTD/svg10.dtd">
<svg version="1.0" xmlns="http://www.w3.org/2000/svg"
 width="842.000000pt" height="765.000000pt" viewBox="0 0 842.000000 765.000000"
 preserveAspectRatio="xMidYMid meet">

<g transform="translate(0.000000,765.000000) scale(0.100000,-0.100000)"
fill="#000000" stroke="none">
<path d="M6677 6821 c-174 -27 -212 -40 -190 -62 7 -7 67 -2 204 18 184 26
194 29 197 51 4 27 15 27 -211 -7z"/>
<path d="M6683 6731 c-176 -25 -219 -39 -197 -61 7 -7 71 -2 205 17 175 25
194 30 194 47 0 11 -4 20 -10 22 -5 1 -92 -10 -192 -25z"/>
<path d="M6675 6640 c-104 -16 -191 -29 -192 -29 -7 -2 -2 -30 6 -35 12 -8
384 43 395 54 10 10 1 41 -11 39 -4 -1 -93 -14 -198 -29z"/>
<path d="M1711 6084 c-28 -35 -28 -97 -1 -124 26 -26 46 -25 75 5 19 18 25 35
25 68 0 74 -58 103 -99 51z"/>
<path d="M1508 6070 c-22 -13 -41 -74 -33 -102 10 -30 35 -58 52 -58 29 0 63
48 63 87 0 66 -37 99 -82 73z"/>
<path d="M1291 6024 c-41 -52 -22 -134 29 -134 51 0 79 88 44 138 -20 29 -48
28 -73 -4z"/>
<path d="M1813 4970 c-46 -20 -79 -64 -89 -118 -8 -44 20 -117 56 -143 23 -18
28 -30 33 -79 10 -114 84 -204 191 -231 154 -39 306 80 306 239 l0 52 61 0
c52 0 60 2 55 16 -3 9 -6 22 -6 29 0 28 -61 85 -103 97 -23 6 -48 16 -56 22
-7 6 -39 13 -70 17 -152 18 -161 21 -183 52 -23 32 -89 67 -128 67 -14 0 -44
-9 -67 -20z"/>
<path d="M2807 4481 c-18 -17 -91 -100 -162 -185 -71 -86 -133 -156 -137 -156
-4 0 -43 36 -87 79 -94 94 -143 122 -227 129 -77 6 -143 -15 -206 -66 -26 -20
-58 -45 -72 -54 -27 -19 -156 -235 -156 -261 0 -19 7 -24 94 -62 80 -35 77
-29 106 -194 10 -57 24 -108 32 -113 20 -14 394 -4 412 11 13 11 16 9 20 -11
3 -12 7 -35 11 -50 l5 -28 -93 0 c-52 0 -162 -3 -245 -7 -122 -5 -152 -4 -152
7 0 7 -16 28 -35 47 l-34 33 -16 -52 c-20 -69 -20 -68 20 -68 44 0 53 -18 30
-62 -65 -125 -79 -161 -96 -242 -10 -50 -19 -132 -19 -183 0 -51 -20 -406 -45
-790 -25 -384 -45 -719 -45 -745 l0 -48 65 0 c36 0 65 2 65 5 0 9 302 1300
305 1303 1 2 10 -30 19 -71 96 -429 313 -1365 320 -1376 7 -10 24 -12 68 -8
33 3 61 7 62 9 2 1 -2 408 -7 903 l-10 900 -59 159 c-32 87 -56 161 -53 164 4
5 1365 -161 1423 -174 16 -3 22 0 22 14 0 12 -679 912 -723 959 -1 1 -3 -13
-4 -30 -3 -35 -45 -84 -77 -89 -11 -2 -34 0 -49 4 -24 6 -66 -13 -271 -118
-142 -73 -255 -124 -271 -124 -21 0 -40 12 -73 47 l-44 48 29 24 c15 13 46 40
68 60 34 30 75 48 260 111 200 67 223 78 257 113 34 36 41 39 77 34 l40 -5
-77 101 c-89 115 -118 137 -184 137 -38 0 -54 -6 -81 -29z"/>
<path d="M1668 3778 c-25 -9 -216 -233 -207 -243 3 -2 45 -9 94 -15 50 -6 99
-13 110 -15 18 -4 24 9 54 118 19 67 36 127 38 133 3 9 -54 39 -61 33 -1 0
-13 -5 -28 -11z"/>
<path d="M1723 1334 c-8 -3 -13 -25 -13 -55 l0 -49 130 0 c125 0 130 1 130 21
0 31 -53 79 -88 79 -16 0 -56 2 -88 5 -32 2 -65 2 -71 -1z"/>
<path d="M2483 1224 c-8 -3 -13 -25 -13 -55 l0 -49 135 0 c88 0 135 4 135 10
0 20 -30 69 -48 79 -20 10 -191 23 -209 15z"/>
</g>
</svg>
